<svg viewBox="0 0 300 216.52" xmlns="http://www.w3.org/2000/svg" xmlns:xlink="http://www.w3.org/1999/xlink"
     width="300.000000" height="216.519531" fill="none" customFrame="#000000">
    <path id="Union"
          d="M300 0L95.0498 0L95.0498 0.419634L103.169 0.419634L103.169 201.164L97.8196 216L99.1196 216L104.06 202.22L112.445 202.22L113.225 216L119.27 216L116.67 170.565L114.2 170.565L107.648 188.739L107.648 0.419634L300 0.419635L300 0ZM0.559897 49.6009L0 49.6009L8.74839 0.728516L10.2881 0.728516L21.1361 49.6009L16.5869 49.6009L13.1576 34.3589L3.28939 34.3589L0.559897 49.6009ZM44.8098 0.728516L44.8098 49.6009L49.289 49.6009L49.289 25.4094L60.9068 25.4094L60.9068 49.6009L65.386 49.6009L65.386 0.728516L60.9068 0.728516L60.9068 24.9899L49.289 24.9899L49.289 0.728516L44.8098 0.728516ZM76.468 49.6009L76.468 0.728516L91.5153 0.728516L91.5153 1.14802L80.9472 1.14802L80.9472 24.4306L90.0455 24.4306L90.0455 24.8501L80.9472 24.8501L80.9472 49.1814L91.5153 49.1814L91.5153 49.6009L76.468 49.6009ZM7.83856 8.9788L7.69858 8.9788L7.20867 11.7056L3.35938 33.9394L13.0176 33.9394L8.39845 11.7056L7.83856 8.9788ZM47.0348 204.3C46.8715 205.28 46.7898 206.216 46.7898 207.109C46.7898 207.873 46.8498 208.605 46.9698 209.305C47.2298 210.822 47.7498 212.122 48.5298 213.205Q48.8802 213.673 49.289 214.082L49.2903 214.083Q50.2458 215.038 51.5198 215.675C52.7765 216.239 54.2282 216.52 55.8748 216.52C57.5215 216.52 59.0815 216.239 60.5548 215.675Q61.7873 215.204 62.8581 214.49Q63.7073 213.924 64.4548 213.205C65.6248 212.079 66.5998 210.779 67.3798 209.305C68.2032 207.789 68.7665 206.12 69.0698 204.3L73.0349 181.875C73.1982 180.919 73.2798 180.012 73.2798 179.156C73.2798 178.422 73.2198 177.725 73.0998 177.065C72.8398 175.592 72.3198 174.335 71.5398 173.295Q71.2209 172.87 70.8488 172.498L70.8485 172.498Q69.8557 171.505 68.4848 170.89Q66.5998 169.98 64.1298 169.98Q62.8278 169.98 61.5829 170.247L61.5826 170.247L61.5705 170.25Q60.5223 170.476 59.5148 170.89Q58.2799 171.363 57.1871 172.058L57.1858 172.059Q56.3236 172.608 55.5498 173.295C54.4232 174.335 53.4482 175.592 52.6248 177.065C51.8448 178.495 51.3032 180.099 50.9998 181.875L47.0348 204.3ZM131.206 216.52C133.2 216.52 135.063 216.26 136.796 215.74C138.573 215.22 140.133 214.484 141.476 213.53C142.82 212.577 143.946 211.407 144.856 210.02C145.766 208.59 146.373 206.987 146.676 205.21L147.196 202.285Q147.409 201.08 147.409 200.029Q147.409 199.154 147.261 198.385C147.045 197.259 146.611 196.305 145.961 195.525C145.355 194.745 144.531 194.139 143.491 193.705C142.451 193.229 141.26 192.925 139.916 192.795L138.681 192.665L138.746 192.34L140.046 192.21C141.346 192.08 142.538 191.799 143.621 191.365Q145.311 190.715 146.546 189.61C147.37 188.83 148.063 187.877 148.626 186.75Q149.536 185.06 149.926 182.915L150.316 180.575Q150.529 179.423 150.529 178.383Q150.529 177.195 150.251 176.155C149.905 174.855 149.276 173.75 148.366 172.84C147.456 171.93 146.308 171.237 144.921 170.76C143.535 170.24 141.953 169.98 140.176 169.98C138.14 169.98 136.168 170.305 134.261 170.955C132.355 171.605 130.708 172.537 129.321 173.75L130.036 174.595C131.293 173.642 132.636 172.905 134.066 172.385C135.496 171.822 136.883 171.54 138.226 171.54C140.566 171.54 142.321 172.342 143.491 173.945C144.301 175.055 144.706 176.467 144.706 178.179Q144.706 179.32 144.466 180.64L144.011 183.175Q143.231 187.465 140.956 189.675Q139.917 190.685 138.674 191.234L138.673 191.234Q137.196 191.885 135.431 191.885L133.936 191.885L133.741 193.12L135.236 193.12C136.406 193.12 137.425 193.315 138.291 193.705C139.201 194.052 139.916 194.594 140.436 195.33Q141.281 196.435 141.541 198.06C141.618 198.542 141.657 199.053 141.657 199.595C141.657 200.272 141.597 200.995 141.476 201.765L140.826 205.34Q140.105 209.338 137.771 211.818Q137.372 212.241 136.926 212.62C134.933 214.31 132.571 215.155 129.841 215.155C128.541 215.155 127.22 214.96 125.876 214.57C124.576 214.18 123.276 213.595 121.976 212.815L121.131 213.79C122.475 214.7 124.013 215.394 125.746 215.87Q128.346 216.52 131.206 216.52ZM205.917 204.3Q205.672 205.77 205.672 207.109Q205.672 208.255 205.852 209.305C206.112 210.822 206.632 212.122 207.412 213.205C208.192 214.245 209.188 215.069 210.402 215.675C211.658 216.239 213.11 216.52 214.757 216.52C216.403 216.52 217.963 216.239 219.437 215.675C220.91 215.112 222.21 214.289 223.337 213.205C224.507 212.079 225.482 210.779 226.262 209.305C227.085 207.789 227.648 206.12 227.952 204.3L231.917 181.875Q232.162 180.44 232.162 179.156Q232.162 178.055 231.982 177.065C231.722 175.592 231.202 174.335 230.422 173.295C229.642 172.255 228.623 171.454 227.367 170.89C226.11 170.284 224.658 169.98 223.012 169.98Q221.71 169.98 220.465 170.247L220.464 170.247L220.452 170.25Q219.404 170.476 218.397 170.89C216.923 171.454 215.602 172.255 214.432 173.295C213.305 174.335 212.33 175.592 211.507 177.065C210.727 178.495 210.185 180.099 209.882 181.875L205.917 204.3ZM233.719 204.235C233.542 205.322 233.454 206.35 233.454 207.319C233.454 208.011 233.499 208.674 233.589 209.305C233.849 210.822 234.369 212.122 235.149 213.205C235.929 214.289 236.948 215.112 238.204 215.675C239.461 216.239 240.934 216.52 242.624 216.52C244.964 216.52 247.088 215.979 248.994 214.895C250.944 213.812 252.526 212.23 253.739 210.15L252.699 209.695C252.179 210.519 251.594 211.277 250.944 211.97C250.294 212.664 249.579 213.249 248.799 213.725C248.019 214.159 247.174 214.505 246.264 214.765C245.398 215.025 244.509 215.155 243.599 215.155C241.649 215.155 240.284 214.549 239.504 213.335C239.02 212.555 238.778 211.533 238.778 210.269C238.778 209.497 238.869 208.634 239.049 207.68L244.184 178.56C244.574 176.264 245.398 174.509 246.654 173.295Q247.37 172.604 248.216 172.166Q249.677 171.41 251.529 171.41C252.786 171.41 253.913 171.67 254.909 172.19C255.906 172.667 256.816 173.425 257.639 174.465L258.614 173.62C257.704 172.407 256.599 171.497 255.299 170.89C253.999 170.284 252.504 169.98 250.814 169.98Q248.58 169.98 246.597 170.688L246.594 170.689L246.59 170.69L246.582 170.693Q246.324 170.786 246.069 170.89Q245.318 171.186 244.614 171.57Q243.31 172.282 242.169 173.295C241.043 174.335 240.089 175.592 239.309 177.065C238.529 178.539 237.988 180.164 237.684 181.94L233.719 204.235ZM17.2852 216L23.1352 216L31.0002 171.735L40.8152 171.735L32.9502 216L38.8652 216L46.9252 170.565L25.3452 170.565L17.2852 216ZM86.5467 170.565L80.6967 170.565L72.6367 216L78.5517 216L82.6579 192.665L82.8417 192.665C83.4917 192.709 84.0117 192.925 84.4017 193.315C84.8351 193.705 85.1817 194.572 85.4417 195.915L89.3417 216L95.4517 216L91.4867 197.28C91.2701 196.154 90.9884 195.222 90.6417 194.485C90.2951 193.749 89.8834 193.164 89.4067 192.73C88.9734 192.254 88.4534 191.929 87.8467 191.755C87.3826 191.623 86.8677 191.541 86.3021 191.51L100.652 170.565L99.1567 170.565L84.8721 191.495L82.8638 191.495L86.5467 170.565ZM146.252 216L147.552 216L152.492 202.22L160.877 202.22L161.657 216L167.702 216L165.102 170.565L162.632 170.565L146.252 216ZM167.964 215.285C168.614 215.719 169.308 216.022 170.044 216.195Q171.149 216.52 172.384 216.52C173.598 216.52 174.768 216.239 175.894 215.675C177.021 215.112 178.061 214.245 179.014 213.075C179.968 211.862 180.834 210.345 181.614 208.525C182.394 206.662 183.066 204.452 183.629 201.895L190.129 171.735L199.619 171.735L191.884 216L197.734 216L205.729 170.565L184.474 170.565L176.999 206.055C176.609 207.832 176.219 209.305 175.829 210.475Q175.244 212.23 174.594 213.27C174.161 213.964 173.684 214.44 173.164 214.7C172.688 214.96 172.168 215.09 171.604 215.09C171.084 215.09 170.586 215.025 170.109 214.895C169.589 214.765 169.091 214.527 168.614 214.18L167.964 215.285ZM266.421 190.455L269.931 170.565L264.081 170.565L256.021 216L267.07 216C268.414 216 269.714 215.719 270.971 215.155C272.271 214.592 273.44 213.834 274.48 212.88C275.521 211.927 276.409 210.822 277.146 209.565C277.882 208.265 278.38 206.879 278.641 205.405L279.355 201.31Q279.568 200.218 279.568 199.211Q279.568 198.06 279.29 197.02C278.987 195.677 278.445 194.529 277.665 193.575C276.885 192.579 275.889 191.82 274.676 191.3C273.505 190.737 272.162 190.455 270.646 190.455L266.421 190.455ZM57.4348 178.495Q57.7598 176.74 58.3448 175.375C58.7348 174.465 59.2115 173.707 59.7748 173.1C60.3382 172.494 60.9665 172.039 61.6598 171.735C62.3532 171.389 63.1115 171.215 63.9348 171.215C64.7582 171.215 65.4515 171.367 66.0148 171.67C66.6215 171.974 67.0765 172.45 67.3798 173.1Q67.8998 174.01 67.9648 175.375C67.9896 175.635 68.002 175.906 68.002 176.187Q68.002 177.242 67.7698 178.495L62.5048 208.07C62.3315 209.24 62.0498 210.28 61.6598 211.19C61.2698 212.1 60.7932 212.88 60.2298 213.53Q59.6299 214.23 58.8761 214.661Q58.6499 214.79 58.4098 214.895C57.7165 215.199 56.9582 215.35 56.1348 215.35C55.3115 215.35 54.5965 215.199 53.9898 214.895C53.4265 214.592 52.9715 214.137 52.6248 213.53C52.3215 212.88 52.1265 212.1 52.0398 211.19C52.0326 211.039 52.029 210.884 52.029 210.725C52.029 209.93 52.1193 209.045 52.2998 208.07L57.4348 178.495ZM216.317 178.495C216.533 177.325 216.837 176.285 217.227 175.375C217.617 174.465 218.093 173.707 218.657 173.1C219.22 172.494 219.848 172.039 220.542 171.735C221.235 171.389 221.993 171.215 222.817 171.215C223.64 171.215 224.333 171.367 224.897 171.67C225.503 171.974 225.958 172.45 226.262 173.1C226.608 173.707 226.803 174.465 226.847 175.375C226.871 175.635 226.884 175.906 226.884 176.187C226.884 176.89 226.806 177.66 226.652 178.495L221.387 208.07C221.213 209.24 220.932 210.28 220.542 211.19C220.152 212.1 219.675 212.88 219.112 213.53C218.592 214.137 217.985 214.592 217.292 214.895C216.598 215.199 215.84 215.35 215.017 215.35C214.193 215.35 213.478 215.199 212.872 214.895C212.308 214.592 211.853 214.137 211.507 213.53C211.203 212.88 211.008 212.1 210.922 211.19C210.914 211.039 210.911 210.884 210.911 210.725C210.911 209.93 211.001 209.045 211.182 208.07L216.317 178.495ZM111.21 181.875L111.6 181.875L111.6 184.475L112.38 201.05L104.515 201.05L110.365 184.475L111.21 181.875ZM159.642 181.875L160.032 181.875L160.032 184.475L160.812 201.05L152.947 201.05L158.797 184.475L159.642 181.875ZM272.531 206.64Q272.141 208.85 271.556 210.41Q271.036 211.905 270.255 212.88C269.736 213.53 269.129 214.029 268.435 214.375C267.786 214.679 267.07 214.83 266.29 214.83L262.065 214.83L266.226 191.625L270.06 191.625C271.664 191.625 272.791 192.34 273.441 193.77Q274.035 194.959 274.035 196.827C274.035 197.761 273.923 198.822 273.701 200.01L272.531 206.64Z"
          fill="rgb(17,17,17)" fill-rule="evenodd"/>
</svg>
