<svg viewBox="0 0 808 144" fill="none" xmlns="http://www.w3.org/2000/svg">
<path d="M0.799805 142H18.7998L43.3998 3.40039H73.5998L48.9998 142H67.1998L91.9998 2.20038H25.5998L0.799805 142Z" fill="#111111"/>
<path d="M92.3373 106C91.404 111.6 91.3373 116.734 92.1373 121.4C92.9373 126.067 94.5373 130.067 96.9373 133.4C99.3373 136.6 102.404 139.134 106.137 141C110.004 142.734 114.471 143.6 119.537 143.6C124.737 143.6 129.537 142.734 133.937 141C138.471 139.267 142.471 136.734 145.937 133.4C149.537 129.934 152.604 125.934 155.137 121.4C157.671 116.734 159.337 111.6 160.137 106L172.337 37.0004C173.404 31.5337 173.471 26.6004 172.537 22.2004C171.737 17.6671 170.137 13.8004 167.737 10.6004C165.337 7.40038 162.204 4.93372 158.337 3.20039C154.471 1.33372 150.071 0.400391 145.137 0.400391C140.071 0.400391 135.271 1.33372 130.737 3.20039C126.204 4.93372 122.137 7.40038 118.537 10.6004C115.071 13.8004 112.071 17.6671 109.537 22.2004C107.137 26.6004 105.471 31.5337 104.537 37.0004L92.3373 106ZM124.737 25.0004C125.404 21.267 126.337 17.9337 127.537 15.0004C128.871 12.0671 130.337 9.60039 131.937 7.60038C133.671 5.60038 135.604 4.13372 137.737 3.20039C139.871 2.13372 142.271 1.60039 144.937 1.60039C147.471 1.60039 149.604 2.13372 151.337 3.20039C153.204 4.13372 154.604 5.60038 155.537 7.60038C156.604 9.46705 157.204 11.867 157.337 14.8004C157.471 17.7337 157.204 21.1337 156.537 25.0004L139.737 119.2C139.071 123.067 138.137 126.467 136.937 129.4C135.871 132.2 134.471 134.6 132.737 136.6C131.004 138.6 129.071 140.067 126.937 141C124.937 141.934 122.604 142.4 119.937 142.4C117.271 142.4 115.004 141.934 113.137 141C111.404 140.067 110.071 138.667 109.137 136.8C108.204 134.8 107.604 132.334 107.337 129.4C107.204 126.334 107.471 122.934 108.137 119.2L124.737 25.0004Z" fill="#111111"/>
<path d="M241.312 142L228.912 83.6004C228.246 80.4004 227.379 77.8004 226.312 75.8004C225.379 73.6671 224.246 72.0004 222.912 70.8004C221.579 69.6004 220.046 68.8004 218.312 68.4004C216.579 68.0004 214.712 67.8004 212.712 67.8004H197.112L196.912 69.0004H202.912C204.912 69.1337 206.446 69.8671 207.512 71.2004C208.579 72.5337 209.446 75.0671 210.112 78.8004L222.512 142H241.312ZM255.712 2.20038H253.712L207.712 69.6004L208.912 70.4004L255.712 2.20038ZM213.912 2.20038H195.912L171.112 142H189.312L213.912 2.20038Z" fill="#111111"/>
<path d="M248.598 142H250.198L266.198 98.4004H292.998L295.998 142H314.598L305.398 2.20038H300.198L248.598 142ZM289.198 35.2004H289.598L290.198 43.2004L292.998 97.2004H266.798L286.198 43.2004L289.198 35.2004Z" fill="#111111"/>
<path d="M351.326 143.6C357.46 143.6 363.193 142.8 368.526 141.2C373.993 139.6 378.793 137.334 382.926 134.4C387.06 131.467 390.526 127.867 393.326 123.6C396.126 119.2 397.993 114.267 398.926 108.8L400.526 99.8004C401.326 95.2671 401.393 91.2671 400.726 87.8004C400.06 84.3337 398.726 81.4004 396.726 79.0004C394.726 76.467 392.126 74.467 388.926 73.0004C385.86 71.5337 382.193 70.6671 377.926 70.4004L373.726 70.0004L373.926 69.2004L378.326 69.0004C382.326 68.7337 385.993 67.9337 389.326 66.6004C392.793 65.1337 395.793 63.2671 398.326 61.0004C400.993 58.6004 403.193 55.6671 404.926 52.2004C406.793 48.6004 408.126 44.6004 408.926 40.2004L410.126 33.0004C411.06 27.9337 410.993 23.4004 409.926 19.4004C408.86 15.4004 406.926 12.0004 404.126 9.20038C401.326 6.40038 397.793 4.26705 393.526 2.80038C389.26 1.20039 384.393 0.400391 378.926 0.400391C372.66 0.400391 366.593 1.40039 360.726 3.40039C354.86 5.40038 349.793 8.26705 345.526 12.0004L346.326 12.8004C350.06 9.60039 354.193 7.13372 358.726 5.40038C363.393 3.66705 367.86 2.80038 372.126 2.80038C379.726 2.80038 385.393 5.46705 389.126 10.8004C392.86 16.0004 393.926 23.3337 392.326 32.8004L390.726 41.2004C389.126 50.4004 385.993 57.3337 381.326 62.0004C376.66 66.6671 370.926 69.0004 364.126 69.0004H359.526L359.326 70.2004H363.926C367.66 70.2004 370.86 70.8004 373.526 72.0004C376.326 73.2004 378.526 75.0004 380.126 77.4004C381.86 79.667 382.926 82.5337 383.326 86.0004C383.726 89.4671 383.593 93.4671 382.926 98.0004L380.726 109.6C378.993 119.734 374.86 127.6 368.326 133.2C361.926 138.667 354.26 141.4 345.326 141.4C341.193 141.4 337.06 140.8 332.926 139.6C328.926 138.4 324.993 136.6 321.126 134.2L320.326 135.2C324.46 138 329.193 140.134 334.526 141.6C339.86 142.934 345.46 143.6 351.326 143.6Z" fill="#111111"/>
<path d="M397.622 142H399.222L415.222 98.4004H442.022L445.022 142H463.622L454.422 2.20038H449.222L397.622 142ZM438.222 35.2004H438.622L439.222 43.2004L442.022 97.2004H415.822L435.222 43.2004L438.222 35.2004Z" fill="#111111"/>
<path d="M464.428 139.8C466.428 141.134 468.561 142.067 470.828 142.6C473.095 143.267 475.495 143.6 478.028 143.6C481.761 143.6 485.361 142.734 488.828 141C492.295 139.267 495.495 136.6 498.428 133C501.361 129.267 504.028 124.6 506.428 119C508.961 113.267 511.028 106.467 512.628 98.6004L533.028 3.40039H562.428L538.028 142H556.028L580.628 2.20038H515.228L492.228 111.4C491.028 117.4 489.761 122.334 488.428 126.2C487.095 129.934 485.695 133 484.228 135.4C482.895 137.667 481.428 139.267 479.828 140.2C478.228 141.134 476.561 141.6 474.828 141.6C473.095 141.6 471.495 141.4 470.028 141C468.428 140.467 466.828 139.667 465.228 138.6L464.428 139.8Z" fill="#111111"/>
<path d="M581.205 106C580.271 111.6 580.205 116.734 581.005 121.4C581.805 126.067 583.404 130.067 585.805 133.4C588.205 136.6 591.271 139.134 595.005 141C598.871 142.734 603.338 143.6 608.404 143.6C613.604 143.6 618.404 142.734 622.805 141C627.338 139.267 631.338 136.734 634.805 133.4C638.404 129.934 641.471 125.934 644.005 121.4C646.538 116.734 648.205 111.6 649.005 106L661.205 37.0004C662.271 31.5337 662.338 26.6004 661.404 22.2004C660.604 17.6671 659.005 13.8004 656.604 10.6004C654.204 7.40038 651.071 4.93372 647.205 3.20039C643.338 1.33372 638.938 0.400391 634.005 0.400391C628.938 0.400391 624.138 1.33372 619.604 3.20039C615.071 4.93372 611.004 7.40038 607.404 10.6004C603.938 13.8004 600.938 17.6671 598.404 22.2004C596.004 26.6004 594.338 31.5337 593.404 37.0004L581.205 106ZM613.604 25.0004C614.271 21.267 615.204 17.9337 616.404 15.0004C617.738 12.0671 619.205 9.60039 620.805 7.60038C622.538 5.60038 624.471 4.13372 626.604 3.20039C628.738 2.13372 631.138 1.60039 633.805 1.60039C636.338 1.60039 638.471 2.13372 640.205 3.20039C642.071 4.13372 643.471 5.60038 644.404 7.60038C645.471 9.46705 646.071 11.867 646.205 14.8004C646.338 17.7337 646.071 21.1337 645.404 25.0004L628.604 119.2C627.938 123.067 627.005 126.467 625.805 129.4C624.738 132.2 623.338 134.6 621.604 136.6C619.871 138.6 617.938 140.067 615.805 141C613.805 141.934 611.471 142.4 608.805 142.4C606.138 142.4 603.871 141.934 602.005 141C600.271 140.067 598.938 138.667 598.005 136.8C597.071 134.8 596.471 132.334 596.205 129.4C596.071 126.334 596.338 122.934 597.005 119.2L613.604 25.0004Z" fill="#111111"/>
<path d="M666.751 105.8C665.818 111.534 665.685 116.734 666.351 121.4C667.151 126.067 668.751 130.067 671.151 133.4C673.551 136.734 676.685 139.267 680.551 141C684.418 142.734 688.885 143.6 693.951 143.6C701.285 143.6 707.885 141.934 713.751 138.6C719.751 135.134 724.618 130.267 728.351 124L727.151 123.4C725.685 126.2 723.818 128.734 721.551 131C719.418 133.267 717.018 135.2 714.351 136.8C711.685 138.4 708.818 139.667 705.751 140.6C702.685 141.534 699.618 142 696.551 142C690.418 142 686.218 140.067 683.951 136.2C681.685 132.334 681.285 126.134 682.751 117.6L699.151 25.6004C700.485 18.0004 703.085 12.2004 706.951 8.20038C710.951 4.20038 716.018 2.20038 722.151 2.20038C726.418 2.20038 730.218 3.06705 733.551 4.80038C737.018 6.53372 739.951 9.06705 742.351 12.4004L743.351 11.6004C740.551 7.86706 737.151 5.06706 733.151 3.20039C729.151 1.33372 724.551 0.400391 719.351 0.400391C714.151 0.400391 709.285 1.33372 704.751 3.20039C700.351 4.93372 696.351 7.40038 692.751 10.6004C689.285 13.8004 686.351 17.6671 683.951 22.2004C681.551 26.7337 679.885 31.7337 678.951 37.2004L666.751 105.8Z" fill="#111111"/>
<path d="M767.37 63.4004L778.17 2.20038H760.17L735.37 142H769.37C773.503 142 777.503 141.134 781.37 139.4C785.37 137.667 788.97 135.334 792.17 132.4C795.37 129.467 798.103 126.067 800.37 122.2C802.637 118.2 804.17 113.934 804.97 109.4L807.17 96.8004C808.103 92.0004 808.037 87.6004 806.97 83.6004C806.037 79.4671 804.37 75.9337 801.97 73.0004C799.57 69.9337 796.503 67.6004 792.77 66.0004C789.17 64.2671 785.037 63.4004 780.37 63.4004H767.37ZM785.97 115.2C785.17 119.867 784.17 123.8 782.97 127C781.77 130.2 780.37 132.867 778.77 135C777.17 137 775.37 138.467 773.37 139.4C771.37 140.334 769.037 140.8 766.37 140.8H753.57L767.17 64.6004H778.97C783.904 64.6004 787.37 66.8004 789.37 71.2004C791.503 75.6004 791.77 82.1337 790.17 90.8004L785.97 115.2Z" fill="#111111"/>
</svg>
